<?xml version="1.0" encoding="UTF-8" standalone="no"?>
<!-- Generator: Adobe Illustrator 26.3.1, SVG Export Plug-In . SVG Version: 6.00 Build 0)  -->

<svg
   version="1.1"
   x="0px"
   y="0px"
   viewBox="0 0 1920 1172.5"
   style="enable-background:new 0 0 1920 1172.5;"
   xml:space="preserve"
   id="svg1070"
   sodipodi:docname="structure.svg"
   inkscape:version="1.1.1 (1:1.1+202109281949+c3084ef5ed)"
   xmlns:inkscape="http://www.inkscape.org/namespaces/inkscape"
   xmlns:sodipodi="http://sodipodi.sourceforge.net/DTD/sodipodi-0.dtd"
   xmlns="http://www.w3.org/2000/svg"
   xmlns:svg="http://www.w3.org/2000/svg"><defs
   id="defs1074">
	
	
	
	
	
	
	
	
	
	
	
	
	
	
	
	
	
	
	
	
	
	
	
	
	
	
	
	
	
	
	
	
	
	
	
	
	
	
	
	
	
	
	
	
	
	
	
	
	
	
	
	
	
	
	
	
	
	
	
	
	
	
	
	
	
	
	
	
	
	
	
	
	
	
	
	
	
	
	
	
	
	
	
	
	
	
	
	
	
	
	
	
	
	
	
	
	
	
	
	
	
	
	
	
	
	
	
	
	
	
	
	
	
	
	
	
	
	
	
	
	
	
	
	
	
	
	
	
	
	
	
	
	
	
	
	
	
	
	
	
	
	
	
	
	
	
	
	
	
	
	
	
	
	
	
	
	
	
	
	
	
	
	
	
	
	
	
	

	
	
	
	
	
	
	
	
	
	
	
	
	
	
	
	
	
	
	
	
	
	
	
	
	
	
	
	
	
	
	
	
	
	
	
	
	
	
	
	
	
	
	
	
	
	
	
	
	
	
	
	
	
	
	
	
	
	
	
	
	
	
	
	
	
	
	
	
	
	
	
	
	
	
	
	
	
	
	
	
	
	
	
	
	
	
	
	
	
	
	
	
	
	
	
	
	
	
	
	
	
	
	
	
	
	
	
	
	
	
	
	
	
	
	
	
	
	
	
	
	
	
	
	
	
	
	
	
	
	
	
	
	
	
	
	
	
	
	
	
	
	
	
	
	
	
	
	
	
	
	
	
	
	
	
	
	
	
	
	
	
	
	
	
	
	
	
	
	
	
	
	
	

		
	
		
		
		
	
		
		
		
	
		
		
		
	
		
	</defs><sodipodi:namedview
   id="namedview1072"
   pagecolor="#ffffff"
   bordercolor="#666666"
   borderopacity="1.0"
   inkscape:pageshadow="2"
   inkscape:pageopacity="0.0"
   inkscape:pagecheckerboard="0"
   showgrid="false"
   inkscape:zoom="1.3953092"
   inkscape:cx="893.70872"
   inkscape:cy="493.43902"
   inkscape:window-width="1854"
   inkscape:window-height="1052"
   inkscape:window-x="66"
   inkscape:window-y="0"
   inkscape:window-maximized="1"
   inkscape:current-layer="svg1070" />
<style
   type="text/css"
   id="style2">
	.st0{fill:#FF5E00;}
	.st1{fill:none;stroke:#FF5E00;stroke-miterlimit:10;}
	.st2{fill:#66403A;}
	.st3{fill:none;}
	.st4{fill:#F8F8F8;}
	.st6{font-size:15px;}
	.st7{font-size:12px;}
</style>
<g
   id="back">
	<rect
   width="1920"
   height="1173.6"
   id="rect4" />
</g>
<g
   id="g9">
		<circle
   class="st0"
   cx="1737.5"
   cy="473.89999"
   r="11.4"
   id="circle7" />
	</g><line
   class="st1"
   x1="1737.5"
   y1="473.89999"
   x2="1736.3"
   y2="384.5"
   id="line11" /><path
   class="st1"
   d="m 185.8,198.6 c -14.1,-20.7 -25.6,-37.4 -25.6,-37.4 0,0 11.5,16.7 25.6,37.4 14.1,20.7 25.6,37.4 25.6,37.4 0,0 -11.5,-16.8 -25.6,-37.4 z"
   id="path13" /><g
   id="g17">
		<circle
   class="st2"
   cx="224.3"
   cy="254.89999"
   r="22.9"
   id="circle15" />
	</g><g
   id="g21">
		<circle
   class="st2"
   cx="185.89999"
   cy="198.7"
   r="16.200001"
   id="circle19" />
	</g><path
   class="st1"
   d="M 515.4,216.6 C 500.3,196.7 488,180.5 488,180.5 c 0,0 12.2,16.1 27.4,36.1 15.2,20 27.4,36.1 27.4,36.1 0,0 -12.3,-16.2 -27.4,-36.1 z"
   id="path27" /><g
   id="g35">
		<circle
   class="st2"
   cx="515.5"
   cy="216.7"
   r="16.200001"
   id="circle33" />
	</g><path
   class="st1"
   d="m 1729.5,783.4 c 23.6,8.5 42.7,15.3 42.7,15.3 0,0 -19.1,-6.8 -42.7,-15.3 -23.6,-8.5 -42.7,-15.3 -42.7,-15.3 0,0 19.2,6.8 42.7,15.3 z"
   id="path41" /><g
   id="g49">
		<circle
   class="st2"
   cx="1729.4"
   cy="783.40002"
   r="16.200001"
   id="circle47" />
	</g><g
   id="g53">
		<circle
   class="st0"
   cx="1782.7"
   cy="802.5"
   r="11.4"
   id="circle51" />
	</g><path
   class="st1"
   d="m 1037.1,1020.2 c -39.4,27.1 -71.3,49.1 -71.3,49.1 0,0 31.9,-22 71.3,-49.1 39.4,-27.1 71.3,-49.1 71.3,-49.1 0,0 -31.9,22 -71.3,49.1 z"
   id="path55" /><g
   id="g63">
		<circle
   class="st2"
   cx="1071.2"
   cy="996.70001"
   r="16.200001"
   id="circle61" />
	</g><g
   id="g67">
		<circle
   class="st2"
   cx="1015"
   cy="1035.5"
   r="11.7"
   id="circle65" />
	</g><g
   id="g71">
		<circle
   class="st0"
   cx="958.20001"
   cy="1074.6"
   r="11.4"
   id="circle69" />
	</g><g
   id="g79">
		<circle
   class="st0"
   cx="157.7"
   cy="883.5"
   r="11.4"
   id="circle77" />
	</g><path
   class="st1"
   d="m 172,861.8 c -4.5,6.8 -8.1,12.4 -8.1,12.4 0,0 3.6,-5.6 8.1,-12.4 4.5,-6.8 8.1,-12.4 8.1,-12.4 0,0 -3.7,5.5 -8.1,12.4 z"
   id="path81" /><g
   id="g89">
		<circle
   class="st0"
   cx="57.799999"
   cy="352.39999"
   r="11.4"
   id="circle87" />
	</g><path
   class="st1"
   d="m 82,362.1 c -7.6,-3 -13.7,-5.5 -13.7,-5.5 0,0 6.1,2.4 13.7,5.5 7.6,3 13.7,5.5 13.7,5.5 0,0 -6.2,-2.5 -13.7,-5.5 z"
   id="path91" /><path
   class="st1"
   d="m 760.1,159.4 c 3.8,-7.2 6.9,-13.1 6.9,-13.1 0,0 -3.1,5.8 -6.9,13.1 -3.8,7.2 -6.9,13.1 -6.9,13.1 0,0 3.1,-5.9 6.9,-13.1 z"
   id="path101" /><path
   class="st1"
   d="m 1119.4,150.7 c 8,1.6 14.5,3 14.5,3 0,0 -6.5,-1.4 -14.5,-3 -8,-1.6 -14.5,-3 -14.5,-3 0,0 6.5,1.3 14.5,3 z"
   id="path111" /><g
   id="g119">
		<circle
   class="st0"
   cx="253.39999"
   cy="1052.4"
   r="11.4"
   id="circle117" />
	</g><path
   class="st1"
   d="m 276,1039.6 c -7.1,4 -12.9,7.3 -12.9,7.3 0,0 5.8,-3.3 12.9,-7.3 7.1,-4 12.9,-7.3 12.9,-7.3 0,0 -5.7,3.3 -12.9,7.3 z"
   id="path121" /><g
   id="g129">
		<circle
   class="st0"
   cx="1746.6"
   cy="998.20001"
   r="11.4"
   id="circle127" />
	</g><path
   class="st1"
   d="m 1723.2,987 c 7.4,3.5 13.4,6.4 13.4,6.4 0,0 -6,-2.9 -13.4,-6.4 -7.4,-3.5 -13.4,-6.4 -13.4,-6.4 0,0 6,2.9 13.4,6.4 z"
   id="path131" /><path
   class="st1"
   d="m 1564.2,181.6 c 31.1,-3 56.4,-5.4 56.4,-5.4 0,0 -25.2,2.4 -56.4,5.4 -31.1,3 -56.4,5.4 -56.4,5.4 0,0 25.3,-2.4 56.4,-5.4 z"
   id="path133" /><polyline
   class="st1"
   points="1611.9,205.5 1568.9,181.2 1606.1,144.8  "
   id="polyline139" /><g
   id="g143">
		<circle
   class="st0"
   cx="1611.9"
   cy="205.5"
   r="11.4"
   id="circle141" />
	</g><g
   id="g147">
		<circle
   class="st0"
   cx="1620.8"
   cy="176.2"
   r="11.4"
   id="circle145" />
	</g><g
   id="g151">
		<circle
   class="st0"
   cx="1606.1"
   cy="144.8"
   r="11.4"
   id="circle149" />
	</g><path
   class="st1"
   d="m 1452.1,931.7 c 0,15.6 0,28.3 0,28.3 0,0 0,-12.7 0,-28.3 0,-15.6 0,-28.3 0,-28.3 0,0 0,12.7 0,28.3 z"
   id="path153" /><polyline
   class="st1"
   points="1350.4,1042.6 1450.3,955.8 1499.4,1093.8  "
   id="polyline159" /><g
   id="g163">
		<circle
   class="st0"
   cx="1350.4"
   cy="1042.6"
   r="11.4"
   id="circle161" />
	</g><g
   id="g167">
		<circle
   class="st0"
   cx="1501.1"
   cy="1093.8"
   r="11.4"
   id="circle165" />
	</g><g
   id="g171">
		<circle
   class="st2"
   cx="1405.6"
   cy="996.29999"
   r="11.7"
   id="circle169" />
	</g><g
   id="g175">
		<circle
   class="st2"
   cx="1480.1"
   cy="1042.6"
   r="11.7"
   id="circle173" />
	</g><g
   id="g179">
		<circle
   class="st2"
   cx="1466.5"
   cy="996.29999"
   r="11.7"
   id="circle177" />
	</g><polyline
   class="st1"
   points="433.4,497.4 415.5,567.2 373.2,506.6  "
   id="polyline181" /><polyline
   class="st1"
   points="394.2,646.6 423.4,580.8 455.2,647.5  "
   id="polyline183" /><polyline
   class="st1"
   points="267.9,547.3 429.9,570.9 343.6,624  "
   id="polyline185" /><path
   class="st1"
   d="m 471.7,566.5 c -24.4,5.5 -44.2,10 -44.2,10 0,0 19.8,-4.5 44.2,-10 24.4,-5.5 44.2,-10 44.2,-10 0,0 -19.7,4.4 -44.2,10 z"
   id="path187" /><g
   id="g195">
		<circle
   class="st2"
   cx="418.29999"
   cy="578.59998"
   r="34.900002"
   id="circle193" />
	</g><g
   id="g199">
		<circle
   class="st0"
   cx="262.60001"
   cy="545.40002"
   r="11.4"
   id="circle197" />
	</g><g
   id="g203">
		<circle
   class="st0"
   cx="371.10001"
   cy="718.59998"
   r="11.4"
   id="circle201" />
	</g><path
   class="st1"
   d="m 378.3,693.7 c -2.3,7.9 -4.1,14.2 -4.1,14.2 0,0 1.9,-6.4 4.1,-14.2 2.3,-7.9 4.1,-14.2 4.1,-14.2 0,0 -1.8,6.3 -4.1,14.2 z"
   id="path205" /><path
   class="st1"
   d="m 485.8,691.8 c 9,11.2 16.3,20.2 16.3,20.2 0,0 -7.3,-9 -16.3,-20.2 -9,-11.2 -16.3,-20.2 -16.3,-20.2 0,0 7.3,9.1 16.3,20.2 z"
   id="path207" /><polyline
   class="st1"
   points="456.9,721.8 465.9,665.8 524.5,670.2  "
   id="polyline209" /><g
   id="g213">
		<circle
   class="st0"
   cx="456.89999"
   cy="721.79999"
   r="11.4"
   id="circle211" />
	</g><g
   id="g217">
		<circle
   class="st0"
   cx="500.89999"
   cy="710.09998"
   r="11.4"
   id="circle215" />
	</g><g
   id="g221">
		<circle
   class="st0"
   cx="520.5"
   cy="670.20001"
   r="11.4"
   id="circle219" />
	</g><polyline
   class="st1"
   points="279.4,642 328.4,636 320.2,687.3  "
   id="polyline223" /><g
   id="g227">
		<circle
   class="st0"
   cx="279.39999"
   cy="642"
   r="11.4"
   id="circle225" />
	</g><g
   id="g231">
		<circle
   class="st0"
   cx="320.20001"
   cy="687.29999"
   r="11.4"
   id="circle229" />
	</g><polyline
   class="st1"
   points="344,445.4 358.2,492.7 306.2,493.3  "
   id="polyline233" /><g
   id="g237">
		<circle
   class="st0"
   cx="344"
   cy="445.39999"
   r="11.4"
   id="circle235" />
	</g><g
   id="g241">
		<circle
   class="st0"
   cx="306.20001"
   cy="493.29999"
   r="11.4"
   id="circle239" />
	</g><polyline
   class="st1"
   points="465.9,443.1 434,480.8 405.2,437.5  "
   id="polyline243" /><g
   id="g247">
		<circle
   class="st0"
   cx="465.89999"
   cy="443.10001"
   r="11.4"
   id="circle245" />
	</g><g
   id="g251">
		<circle
   class="st0"
   cx="405.20001"
   cy="437.5"
   r="11.4"
   id="circle249" />
	</g><g
   id="g255">
		<circle
   class="st2"
   cx="432.89999"
   cy="495.20001"
   r="22.9"
   id="circle253" />
	</g><g
   id="g259">
		<circle
   class="st2"
   cx="364.60001"
   cy="499.70001"
   r="22.9"
   id="circle257" />
	</g><g
   id="g263">
		<circle
   class="st2"
   cx="320.20001"
   cy="555.79999"
   r="22.9"
   id="circle261" />
	</g><g
   id="g267">
		<circle
   class="st2"
   cx="332.60001"
   cy="633.79999"
   r="22.9"
   id="circle265" />
	</g><g
   id="g271">
		<circle
   class="st2"
   cx="386.89999"
   cy="665.79999"
   r="22.9"
   id="circle269" />
	</g><g
   id="g275">
		<circle
   class="st2"
   cx="460.79999"
   cy="660"
   r="22.9"
   id="circle273" />
	</g><line
   class="st1"
   x1="1060.5"
   y1="580.5"
   x2="1145.2"
   y2="554.09998"
   id="line277" /><path
   class="st1"
   d="m 1174.4,576.8 c -15.1,53.2 -27.4,96.3 -27.4,96.3 0,0 12.3,-43.1 27.4,-96.3 15.1,-53.2 27.4,-96.3 27.4,-96.3 0,0 -12.3,43.1 -27.4,96.3 z"
   id="path279" /><line
   class="st1"
   x1="1081.3"
   y1="651.79999"
   x2="1277.9"
   y2="477.79999"
   id="line281" /><path
   class="st1"
   d="m 1169.5,509.1 c 22.2,91.2 21.8,99.2 21.8,99.2 0,0 0.5,-8 -21.8,-99.2 -22.3,-91.2 -40.3,-165.2 -40.3,-165.2 0,0 18.1,74 40.3,165.2 z"
   id="path283" /><path
   class="st1"
   d="m 1038.9,710.8 c -14.7,20.3 -26.6,36.7 -26.6,36.7 0,0 11.9,-16.4 26.6,-36.7 14.7,-20.3 26.6,-36.7 26.6,-36.7 0,0 -11.8,16.5 -26.6,36.7 z"
   id="path285" /><g
   id="g289">
		<circle
   class="st2"
   cx="1079"
   cy="655.59998"
   r="22.9"
   id="circle287" />
	</g><g
   id="g293">
		<circle
   class="st2"
   cx="1039"
   cy="710.70001"
   r="16.200001"
   id="circle291" />
	</g><g
   id="g297">
		<circle
   class="st0"
   cx="1005.7"
   cy="756.5"
   r="11.4"
   id="circle295" />
	</g><path
   class="st1"
   d="m 1233.6,695.2 c 15.6,47.9 23.6,73.9 23.6,73.9 0,0 -8,-26 -23.6,-73.9 -15.6,-47.9 -28.3,-86.8 -28.3,-86.8 0,0 12.6,38.9 28.3,86.8 z"
   id="path299" /><g
   id="g303">
		<circle
   class="st2"
   cx="1226.7"
   cy="674"
   r="22.9"
   id="circle301" />
	</g><g
   id="g307">
		<circle
   class="st2"
   cx="1245.1"
   cy="727.70001"
   r="16.200001"
   id="circle305" />
	</g><g
   id="g311">
		<circle
   class="st0"
   cx="1257.1"
   cy="769.09998"
   r="11.4"
   id="circle309" />
	</g><path
   class="st1"
   d="m 1239.9,407.9 c 19.4,-46.5 12,-28.5 12,-28.5 0,0 7.4,-18 -12,28.5 -19.4,46.5 -35.2,84.2 -35.2,84.2 0,0 15.7,-37.7 35.2,-84.2 z"
   id="path313" /><g
   id="g317">
		<circle
   class="st2"
   cx="1231.3"
   cy="428.39999"
   r="22.9"
   id="circle315" />
	</g><g
   id="g321">
		<circle
   class="st0"
   cx="1251.9"
   cy="379.39999"
   r="11.4"
   id="circle319" />
	</g><path
   class="st1"
   d="m 1443,579 c 47.4,6 85.9,10.8 85.9,10.8 0,0 -38.4,-4.8 -85.9,-10.8 -47.4,-6 -194.5,-25.6 -194.5,-25.6 0,0 147.1,19.6 194.5,25.6 z"
   id="path323" /><g
   id="g327">
		<circle
   class="st2"
   cx="1334.4"
   cy="565.29999"
   r="22.9"
   id="circle325" />
	</g><g
   id="g331">
		<circle
   class="st2"
   cx="1402"
   cy="573.79999"
   r="16.200001"
   id="circle329" />
	</g><g
   id="g335">
		<circle
   class="st2"
   cx="1469.7"
   cy="582.29999"
   r="11.7"
   id="circle333" />
	</g><g
   id="g339">
		<circle
   class="st0"
   cx="1538.2"
   cy="591"
   r="11.4"
   id="circle337" />
	</g><polyline
   class="st1"
   points="1159.7,355.2 1144.8,407.6 1100.9,371.3  "
   id="polyline341" /><path
   class="st1"
   d="m 1144.8,737.3 c 0,13 0,23.5 0,23.5 0,0 0,-10.5 0,-23.5 0,-13 0,-23.5 0,-23.5 0,0 0,10.5 0,23.5 z"
   id="path343" /><g
   id="g347">
		<circle
   class="st2"
   cx="1144.8"
   cy="690.79999"
   r="22.9"
   id="circle345" />
	</g><polyline
   class="st1"
   points="1116.5,814.3 1144.8,773.8 1177.5,814.3  "
   id="polyline349" /><g
   id="g353">
		<circle
   class="st0"
   cx="1116.5"
   cy="814.29999"
   r="11.4"
   id="circle351" />
	</g><g
   id="g357">
		<circle
   class="st0"
   cx="1177.5"
   cy="814.29999"
   r="11.4"
   id="circle355" />
	</g><polyline
   class="st1"
   points="1404.6,417.4 1349.4,417.4 1372.6,365.5   "
   id="polyline359" /><g
   id="g363">
			<circle
   class="st0"
   cx="1404.6"
   cy="417.39999"
   r="11.4"
   id="circle361" />
		</g><g
   id="g367">
			<circle
   class="st0"
   cx="1372.6"
   cy="365.5"
   r="11.4"
   id="circle365" />
		</g><polyline
   class="st1"
   points="1441,510.7 1404.5,477.4 1448.8,450.2   "
   id="polyline371" /><g
   id="g375">
			<circle
   class="st0"
   cx="1441"
   cy="510.70001"
   r="11.4"
   id="circle373" />
		</g><g
   id="g379">
			<circle
   class="st0"
   cx="1448.8"
   cy="450.20001"
   r="11.4"
   id="circle377" />
		</g><path
   class="st1"
   d="m 976,439.4 c -48.3,-27.3 -87.5,-49.5 -87.5,-49.5 0,0 39.2,22.1 87.5,49.5 48.3,27.3 150.6,83.7 150.6,83.7 0,0 -102.3,-56.4 -150.6,-83.7 z"
   id="path383" /><polyline
   class="st1"
   points="912.5,370.9 933.8,415.5 882.4,424.1  "
   id="polyline385" /><g
   id="g389">
		<circle
   class="st0"
   cx="912.90002"
   cy="371.20001"
   r="11.4"
   id="circle387" />
	</g><g
   id="g393">
		<circle
   class="st0"
   cx="888.90002"
   cy="390.10001"
   r="11.4"
   id="circle391" />
	</g><g
   id="g397">
		<circle
   class="st0"
   cx="882.40002"
   cy="424.10001"
   r="11.5"
   id="circle395" />
	</g><g
   id="g401"
   transform="translate(-13.475939,-5.4828483)">
		<circle
   class="st2"
   cx="1016.1"
   cy="461.10001"
   r="16.200001"
   id="circle399" />
	</g><g
   id="g405"
   transform="translate(-32.513966,-16.282715)">
		<circle
   class="st2"
   cx="966.40002"
   cy="433"
   r="16.200001"
   id="circle403" />
	</g><polyline
   class="st1"
   points="1331.9,761.5 1324.4,655.6 1433.6,682.8  "
   id="polyline407" /><g
   id="g411">
		<circle
   class="st0"
   cx="1331.9"
   cy="761.5"
   r="11.4"
   id="circle409" />
	</g><g
   id="g415">
		<circle
   class="st0"
   cx="1433.6"
   cy="682.79999"
   r="11.4"
   id="circle413" />
	</g><g
   id="g419">
		<circle
   class="st2"
   cx="1328.6"
   cy="708.20001"
   r="16.200001"
   id="circle417" />
	</g><g
   id="g423">
		<circle
   class="st2"
   cx="1382"
   cy="667.79999"
   r="16.200001"
   id="circle421" />
	</g><path
   class="st1"
   d="m 1199,564.3 c 53.2,40.9 96.3,74.1 96.3,74.1 0,0 -43.1,-33.1 -96.3,-74.1 -53.2,-40.9 -22.5,-17.3 -22.5,-17.3 0,0 -30.7,-23.6 22.5,17.3 z"
   id="path425" /><line
   class="st1"
   x1="1153.2"
   y1="405.70001"
   x2="1243.2"
   y2="325.39999"
   id="line431" /><g
   id="g435">
		<circle
   class="st2"
   cx="1198.1"
   cy="363.70001"
   r="16.200001"
   id="circle433" />
	</g><g
   id="g439">
		<circle
   class="st0"
   cx="1243.2"
   cy="325.39999"
   r="11.4"
   id="circle437" />
	</g><line
   class="st1"
   x1="1132.4"
   y1="413.5"
   x2="1020.1"
   y2="387.5"
   id="line441" /><g
   id="g445">
		<circle
   class="st2"
   cx="1071.5"
   cy="399.70001"
   r="16.200001"
   id="circle443" />
	</g><g
   id="g449">
		<circle
   class="st0"
   cx="1016.1"
   cy="386.39999"
   r="11.4"
   id="circle447" />
	</g><g
   id="g453">
		<circle
   class="st2"
   cx="1163.3"
   cy="341.60001"
   r="16.200001"
   id="circle451" />
	</g><g
   id="g457">
		<circle
   class="st0"
   cx="1184.8"
   cy="288.79999"
   r="11.4"
   id="circle455" />
	</g><path
   class="st1"
   d="m 1175,312.9 c 3.1,-7.6 5.6,-13.7 5.6,-13.7 0,0 -2.5,6.2 -5.6,13.7 -3.1,7.6 -5.6,13.7 -5.6,13.7 0,0 2.5,-6.1 5.6,-13.7 z"
   id="path459" /><g
   id="g463">
		<circle
   class="st0"
   cx="1109"
   cy="289"
   r="11.4"
   id="circle461" />
	</g><path
   class="st1"
   d="m 1117.1,313.7 c -2.6,-7.8 -4.6,-14.1 -4.6,-14.1 0,0 2,6.3 4.6,14.1 2.6,7.8 4.6,14.1 4.6,14.1 0,0 -2.1,-6.4 -4.6,-14.1 z"
   id="path465" /><g
   id="g469">
		<circle
   class="st2"
   cx="1090.7"
   cy="363.20001"
   r="16.200001"
   id="circle467" />
	</g><g
   id="g473">
		<circle
   class="st0"
   cx="1049.9"
   cy="323.5"
   r="11.4"
   id="circle471" />
	</g><path
   class="st1"
   d="m 1068.5,341.6 c -5.9,-5.7 -10.6,-10.3 -10.6,-10.3 0,0 4.8,4.6 10.6,10.3 5.8,5.7 10.6,10.3 10.6,10.3 0,0 -4.7,-4.6 -10.6,-10.3 z"
   id="path475" /><polyline
   class="st1"
   points="1381.7,472.5 1296.6,461.4 1306.3,410.4  "
   id="polyline477" /><polyline
   class="st1"
   points="1341.7,491.9 1296.6,461.4 1341.7,422.2  "
   id="polyline479" /><g
   id="g483">
		<circle
   class="st2"
   cx="1349.4"
   cy="494.89999"
   r="16.200001"
   id="circle481" />
	</g><g
   id="g487">
		<circle
   class="st0"
   cx="1397.2"
   cy="525.90002"
   r="11.4"
   id="circle485" />
	</g><path
   class="st1"
   d="m 1375.4,511.8 c 6.9,4.5 12.4,8.1 12.4,8.1 0,0 -5.6,-3.7 -12.4,-8.1 -6.9,-4.5 -12.4,-8.1 -12.4,-8.1 0,0 5.5,3.6 12.4,8.1 z"
   id="path489" /><g
   id="g493">
		<circle
   class="st2"
   cx="1397.8"
   cy="471.70001"
   r="16.200001"
   id="circle491" />
	</g><g
   id="g497">
		<circle
   class="st2"
   cx="1342.4"
   cy="418.89999"
   r="16.200001"
   id="circle495" />
	</g><g
   id="g501">
		<circle
   class="st2"
   cx="1309.3"
   cy="397.70001"
   r="16.200001"
   id="circle499" />
	</g><g
   id="g505">
		<circle
   class="st0"
   cx="1328.1"
   cy="343.89999"
   r="11.4"
   id="circle503" />
	</g><path
   class="st1"
   d="m 1319.6,368.4 c 2.7,-7.7 4.9,-14 4.9,-14 0,0 -2.2,6.3 -4.9,14 -2.7,7.7 -4.9,14 -4.9,14 0,0 2.2,-6.2 4.9,-14 z"
   id="path507" /><polyline
   class="st1"
   points="863.9,645.1 912.3,655.1 888.1,701.1   "
   id="polyline509" /><g
   id="g513">
			<circle
   class="st0"
   cx="863.90002"
   cy="645.09998"
   r="11.4"
   id="circle511" />
		</g><g
   id="g517">
			<circle
   class="st0"
   cx="888.09998"
   cy="701.09998"
   r="11.4"
   id="circle515" />
		</g><polyline
   class="st1"
   points="888.1,559 1028.5,589.8 975.5,725.3  "
   id="polyline521" /><polyline
   class="st1"
   points="985.6,549.1 1028.5,589.8 912.3,655.1  "
   id="polyline523" /><g
   id="g527">
		<circle
   class="st2"
   cx="978.5"
   cy="545"
   r="16.200001"
   id="circle525" />
	</g><g
   id="g531">
		<circle
   class="st0"
   cx="935.70001"
   cy="507.29999"
   r="11.4"
   id="circle529" />
	</g><path
   class="st1"
   d="m 955.2,524.5 c -6.1,-5.4 -11.1,-9.8 -11.1,-9.8 0,0 5,4.4 11.1,9.8 6.1,5.4 11.1,9.8 11.1,9.8 0,0 -4.9,-4.4 -11.1,-9.8 z"
   id="path533" /><g
   id="g537">
		<circle
   class="st2"
   cx="937.79999"
   cy="569.20001"
   r="16.200001"
   id="circle535" />
	</g><g
   id="g541">
		<circle
   class="st0"
   cx="882.40002"
   cy="556"
   r="11.4"
   id="circle539" />
	</g><g
   id="g549">
		<circle
   class="st2"
   cx="912.29999"
   cy="654.90002"
   r="16.200001"
   id="circle547" />
	</g><g
   id="g553">
		<circle
   class="st2"
   cx="1003.9"
   cy="656.59998"
   r="16.200001"
   id="circle551" />
	</g><g
   id="g557">
		<circle
   class="st0"
   cx="971.70001"
   cy="730.29999"
   r="11.4"
   id="circle555" />
	</g><g
   id="g561">
		<circle
   class="st2"
   cx="1075.5"
   cy="494.70001"
   r="22.9"
   id="circle559" />
	</g><g
   id="g565">
		<circle
   class="st2"
   cx="1452.1"
   cy="948.59998"
   r="16.200001"
   id="circle563" />
	</g><g
   id="g569">
		<circle
   class="st2"
   cx="1147.8"
   cy="419.79999"
   r="22.9"
   id="circle567" />
	</g><g
   id="g573">
		<circle
   class="st2"
   cx="1127"
   cy="341.39999"
   r="16.200001"
   id="circle571" />
	</g><g
   id="g577">
		<circle
   class="st2"
   cx="1042.5"
   cy="585.40002"
   r="22.9"
   id="circle575" />
	</g><g
   id="g581">
		<circle
   class="st2"
   cx="1313"
   cy="648.90002"
   r="22.9"
   id="circle579" />
	</g><g
   id="g585">
		<circle
   class="st2"
   cx="1284.6"
   cy="473.10001"
   r="22.9"
   id="circle583" />
	</g><g
   id="g589">
		<circle
   class="st2"
   cx="1144.1"
   cy="760.79999"
   r="16.200001"
   id="circle587" />
	</g><g
   id="g593">
		<circle
   class="st2"
   cx="1558.7"
   cy="182.7"
   r="16.200001"
   id="circle591" />
	</g>
<g
   id="tip">
</g>
<rect
   x="1124.3"
   y="544.79999"
   class="st3"
   width="111.8"
   height="27.6"
   id="rect601" /><g
   id="g44802"><circle
     class="st2"
     cx="1180.3"
     cy="548.5"
     r="76.800003"
     id="circle427" /><text
     class="st4 st5 st6"
     id="text603"
     x="1154.7539"
     y="554.35962">Ростех</text></g><rect
   x="476"
   y="555.79999"
   class="st3"
   width="111.8"
   height="27.6"
   id="rect605" /><g
   id="g44797"><g
     id="g191">
		<circle
   class="st2"
   cx="531.90002"
   cy="559.09998"
   r="49.400002"
   id="circle189" />
	</g><text
     class="st4 st5 st6"
     id="text607"
     x="497.84229"
     y="565.39178">Росмайно</text></g><rect
   x="1101.6"
   y="952.59998"
   class="st3"
   width="111.8"
   height="27.6"
   id="rect609" /><g
   id="g29224"><g
     id="g59">
		<circle
   class="st2"
   cx="1127.3"
   cy="958.09998"
   r="22.9"
   id="circle57" />
	</g><text
     class="st4 st5 st6"
     id="text611"
     x="1119.1812"
     y="962.13361">Роскосмос</text></g><rect
   x="1449.1"
   y="876"
   class="st3"
   width="111.8"
   height="27.6"
   id="rect613" /><g
   id="g6811"><g
     id="g157">
		<circle
   class="st2"
   cx="1452.1"
   cy="880.5"
   r="22.9"
   id="circle155" />
	</g><text
     class="st4 st5 st6"
     id="text615"
     x="1454.9088"
     y="850.97974"><tspan
       sodipodi:role="line"
       id="tspan14221"
       x="1454.9088"
       y="850.97974"
       style="text-align:center;text-anchor:middle">Мідстрім </tspan><tspan
       sodipodi:role="line"
       x="1454.9088"
       y="869.72974"
       id="tspan16835"
       style="text-align:center;text-anchor:middle">Груп Лімітед</tspan></text></g><rect
   x="1561.6"
   y="753.40002"
   class="st3"
   width="111.8"
   height="27.6"
   id="rect617" /><g
   id="g6801"><g
     id="g45">
		<circle
   class="st2"
   cx="1665.3"
   cy="760.29999"
   r="22.9"
   id="circle43" />
	</g><text
     class="st4 st5 st6"
     id="text619"
     x="1596.7476"
     y="762.92627">РС-лізинг</text></g><rect
   x="1429.1"
   y="185.10001"
   class="st3"
   width="111.8"
   height="27.6"
   id="rect621" /><g
   id="g6788"><g
     id="g137">
		<circle
   class="st2"
   cx="1485"
   cy="189.2"
   r="22.9"
   id="circle135" />
	</g><text
     class="st4 st5 st6"
     id="text623"
     x="1463.8225"
     y="194.6577">Камаз</text></g><rect
   x="552.5"
   y="265.60001"
   class="st3"
   width="200.8"
   height="73.099998"
   id="rect625" /><g
   id="g6761"><g
     id="g31">
		<circle
   class="st2"
   cx="556.70001"
   cy="270.89999"
   r="22.9"
   id="circle29" />
	</g><text
     id="text633"
     x="552.5083"
     y="275.19171"><tspan
       x="552.5083"
       y="275.19171"
       class="st4 st5 st6"
       id="tspan627">Міністерство земельних </tspan><tspan
       x="552.5083"
       y="293.19171"
       class="st4 st5 st6"
       id="tspan629">та майнових відносин </tspan><tspan
       x="552.5083"
       y="311.19171"
       class="st4 st5 st6"
       id="tspan631">республіки Татарстан</tspan></text></g><rect
   x="169.7"
   y="249.8"
   class="st3"
   width="182.39999"
   height="56.299999"
   id="rect635" /><text
   class="st4 st5 st6"
   id="text637"
   x="213.9785"
   y="259.35489">ЕГО-Холдинг</text><rect
   x="687.09998"
   y="180.8"
   class="st3"
   width="182.39999"
   height="56.299999"
   id="rect639" /><g
   id="g6773"><g
     id="g95">
		<circle
   class="st2"
   cx="745.70001"
   cy="186.8"
   r="16.200001"
   id="circle93" />
	</g><text
     class="st4 st5 st6"
     id="text641"
     x="735.69592"
     y="190.3403">Завод Тула</text></g><rect
   x="990.09998"
   y="139.2"
   class="st3"
   width="182.39999"
   height="56.299999"
   id="rect643" /><g
   id="g6783"><g
     id="g105">
		<circle
   class="st2"
   cx="1089"
   cy="144.5"
   r="16.200001"
   id="circle103" />
	</g><text
     class="st4 st5 st6"
     id="text645"
     x="1060.0979"
     y="148.7086">Енікс</text></g><rect
   x="1634.8"
   y="335.10001"
   class="st3"
   width="182.39999"
   height="54.099998"
   id="rect647" /><g
   id="g6796"><g
     id="g597">
		<circle
   class="st2"
   cx="1736.3"
   cy="382.20001"
   r="16.200001"
   id="circle595" />
	</g><text
     id="text655"
     x="1683.4221"
     y="344.6217"><tspan
       x="1683.4221"
       y="344.6217"
       class="st4 st5 st6"
       id="tspan649">Центральне </tspan><tspan
       x="1640.6221"
       y="362.6217"
       class="st4 st5 st6"
       id="tspan651">конструкторське бюро </tspan><tspan
       x="1649.1221"
       y="380.6217"
       class="st4 st5 st6"
       id="tspan653">ім.  Р.Є.Алексєєва</tspan></text></g><rect
   x="92"
   y="368.5"
   class="st3"
   width="131.7"
   height="27.6"
   id="rect657" /><g
   id="g6748"><g
     id="g85">
		<circle
   class="st2"
   cx="110.7"
   cy="373.60001"
   r="16.200001"
   id="circle83" />
	</g><text
     class="st4 st5 st6"
     id="text659"
     x="98.086197"
     y="378.06131">НПО &quot;Рубістех&quot;</text></g><rect
   x="277.5"
   y="1020.4"
   class="st3"
   width="83.5"
   height="16.1"
   id="rect661" /><g
   id="g44743"><g
     id="g115">
		<circle
   class="st2"
   cx="303"
   cy="1024.4"
   r="16.200001"
   id="circle113" />
	</g><text
     class="st4 st5 st6"
     id="text663"
     x="298.01529"
     y="1029.9242">Пелла</text></g><rect
   x="186.89999"
   y="830.40002"
   class="st3"
   width="122.6"
   height="55.799999"
   id="rect665" /><g
   id="g44751"><g
     id="g75">
		<circle
   class="st2"
   cx="188.89999"
   cy="835.79999"
   r="16.200001"
   id="circle73" />
	</g><text
     id="text673"
     x="186.9169"
     y="839.92859"><tspan
       x="186.9169"
       y="839.92859"
       class="st4 st5 st6"
       id="tspan667">Спеціальний </tspan><tspan
       x="186.9169"
       y="857.92859"
       class="st4 st5 st6"
       id="tspan669">технологічний </tspan><tspan
       x="186.9169"
       y="875.92859"
       class="st4 st5 st6"
       id="tspan671">центр</tspan></text></g><rect
   x="1592.3"
   y="970.20001"
   class="st3"
   width="104.7"
   height="19.700001"
   id="rect675" /><g
   id="g6806"><g
     id="g125">
		<circle
   class="st2"
   cx="1695.2"
   cy="973.70001"
   r="16.200001"
   id="circle123" />
	</g><text
     class="st4 st5 st6"
     id="text677"
     x="1603.1545"
     y="979.76312">Східна верф</text></g><rect
   x="175.3"
   y="539.59998"
   class="st3"
   width="69.900002"
   height="11.6"
   id="rect679" /><text
   class="st0 st5 st7"
   id="text681"
   x="183.8618"
   y="547.25311">ЗРК «ТОР»</text><rect
   x="184.2"
   y="483.39999"
   class="st3"
   width="108.1"
   height="19"
   id="rect683" /><text
   class="st0 st5 st7"
   id="text685"
   x="206.38049"
   y="491.06961">ЗРК «БУК-М2»</text><rect
   x="172.2"
   y="684.20001"
   class="st3"
   width="132.10001"
   height="19"
   id="rect687" /><text
   class="st0 st5 st7"
   id="text689"
   x="173.2527"
   y="691.81989">Радари «СНАР-10м1»</text><rect
   x="131.5"
   y="640"
   class="st3"
   width="132.10001"
   height="12.3"
   id="rect691" /><text
   class="st0 st5 st7"
   id="text693"
   x="127.7402"
   y="647.62982">Радари «Зоопарк-1М»</text><rect
   x="220"
   y="434"
   class="st3"
   width="108.1"
   height="19"
   id="rect695" /><text
   class="st0 st5 st7"
   id="text697"
   x="242.21271"
   y="441.64069">ЗРК «БУК-М3»</text><rect
   x="387.20001"
   y="737.79999"
   class="st3"
   width="108.1"
   height="19"
   id="rect699" /><text
   class="st0 st5 st7"
   id="text701"
   x="413.44711"
   y="745.45868">ЗРК «БУК-М3»</text><rect
   x="484.39999"
   y="719.09998"
   class="st3"
   width="108.1"
   height="19"
   id="rect703" /><text
   class="st0 st5 st7"
   id="text705"
   x="510.59439"
   y="726.76642">ЗРК «БУК-М2»</text><rect
   x="355.29999"
   y="402.29999"
   class="st3"
   width="99.099998"
   height="29.4"
   id="rect707" /><text
   id="text713"
   x="367.3541"
   y="409.9144"><tspan
     x="367.3541"
     y="409.9144"
     class="st0 st5 st7"
     id="tspan709">Шасі до ЗРК </tspan><tspan
     x="377.65411"
     y="420.9144"
     class="st0 st5 st7"
     id="tspan711">«Бук-М3»</tspan></text><rect
   x="475"
   y="417"
   class="st3"
   width="99.099998"
   height="29.4"
   id="rect715" /><text
   id="text721"
   x="474.98001"
   y="424.6041"><tspan
     x="474.98001"
     y="424.6041"
     class="st0 st5 st7"
     id="tspan717">Шасі до ЗРК </tspan><tspan
     x="474.98001"
     y="435.6041"
     class="st0 st5 st7"
     id="tspan719">«Бук-М2»</tspan></text><rect
   x="778.59998"
   y="419.79999"
   class="st3"
   width="89.199997"
   height="10.5"
   id="rect723" /><text
   class="st0 st5 st7"
   id="text725"
   x="788.69598"
   y="427.4718">САУ «Хоста»</text><rect
   x="773.90002"
   y="381.20001"
   class="st3"
   width="100"
   height="10.5"
   id="rect727" /><text
   class="st0 st5 st7"
   id="text729"
   x="773.88428"
   y="388.84009">РСЗВ «Торнадо»</text><rect
   x="800.20001"
   y="358"
   class="st3"
   width="100"
   height="10.5"
   id="rect731" /><text
   class="st0 st5 st7"
   id="text733"
   x="823.21442"
   y="365.62579">РСЗВ «Град»</text><rect
   x="808.40002"
   y="496.79999"
   class="st3"
   width="113.4"
   height="12.1"
   id="rect735" /><text
   class="st0 st5 st7"
   id="text737"
   x="820.16852"
   y="504.41721">120-ММ міномет</text><rect
   x="750.40002"
   y="549.29999"
   class="st3"
   width="116"
   height="13.5"
   id="rect739" /><text
   class="st0 st5 st7"
   id="text741"
   x="772.79572"
   y="556.91669">ДТ-30 «Вітязь»</text><rect
   x="747.20001"
   y="640.40002"
   class="st3"
   width="103"
   height="9.5"
   id="rect743" /><text
   class="st0 st5 st7"
   id="text745"
   x="742.64178"
   y="648.00958">САУ «МСТА-СМ2»</text><rect
   x="737.20001"
   y="696.5"
   class="st3"
   width="138.8"
   height="19"
   id="rect747" /><text
   class="st0 st5 st7"
   id="text749"
   x="742.19373"
   y="704.17963">Ремонт САУ «Акація»</text><rect
   x="838.20001"
   y="720.40002"
   class="st3"
   width="119.8"
   height="40.799999"
   id="rect751" /><text
   id="text759"
   x="869.26678"
   y="728.01813"><tspan
     x="869.26678"
     y="728.01813"
     class="st0 st5 st7"
     id="tspan753">Танки Т-80УК, </tspan><tspan
     x="841.86682"
     y="739.01813"
     class="st0 st5 st7"
     id="tspan755">Т-80УЕ-1,Т-80УМ2, </tspan><tspan
     x="910.36682"
     y="750.01813"
     class="st0 st5 st7"
     id="tspan757">T-80БВМ</tspan></text><rect
   x="988.5"
   y="829.40002"
   class="st3"
   width="138.8"
   height="19"
   id="rect761" /><text
   class="st0 st5 st7"
   id="text763"
   x="1045.4252"
   y="837.02557">КШМ Р-149МА1</text><rect
   x="868.59998"
   y="1075.2"
   class="st3"
   width="72.800003"
   height="39.200001"
   id="rect765" /><text
   class="st0 st5 st7"
   id="text767"
   x="893.72961"
   y="1082.8199">Точка-У</text><rect
   x="446.10001"
   y="1031.6"
   class="st3"
   width="138.8"
   height="19"
   id="rect769" /><text
   class="st0 st5 st7"
   id="text771"
   x="516.68951"
   y="1039.2247">Вантажівки</text><rect
   x="373.89999"
   y="932"
   class="st3"
   width="90.800003"
   height="12.1"
   id="rect773" /><text
   class="st0 st5 st7"
   id="text775"
   x="410.2142"
   y="939.66467">ГАЗ Тигр</text><rect
   x="499"
   y="1066.3"
   class="st3"
   width="90.800003"
   height="12.1"
   id="rect777" /><text
   class="st0 st5 st7"
   id="text779"
   x="535.29382"
   y="1073.931">ГАЗ-Тигр</text><rect
   x="407.39999"
   y="965.79999"
   class="st3"
   width="90.800003"
   height="12.1"
   id="rect781" /><text
   class="st0 st5 st7"
   id="text783"
   x="429.99609"
   y="973.4126">ГАЗ Тигр-М</text><rect
   x="526.70001"
   y="1090.2"
   class="st3"
   width="90.800003"
   height="12.1"
   id="rect785" /><text
   class="st0 st5 st7"
   id="text787"
   x="549.28247"
   y="1097.8389">ГАЗ-Тигр-М</text><rect
   x="406.10001"
   y="893.79999"
   class="st3"
   width="57.400002"
   height="13.7"
   id="rect789" /><text
   class="st0 st5 st7"
   id="text791"
   x="422.62781"
   y="901.46838">БТР-82</text><rect
   x="536.40002"
   y="982.90002"
   class="st3"
   width="57.400002"
   height="13.7"
   id="rect793" /><text
   class="st0 st5 st7"
   id="text795"
   x="536.40222"
   y="990.58728">БРЕМ-К</text><rect
   x="66"
   y="895.70001"
   class="st3"
   width="90.199997"
   height="12"
   id="rect797" /><text
   class="st0 st5 st7"
   id="text799"
   x="74.269897"
   y="903.31799">БПЛА «Орлан»</text><rect
   x="114.8"
   y="1050.2"
   class="st3"
   width="121.9"
   height="26.700001"
   id="rect801" /><text
   id="text807"
   x="119.50055"
   y="1059.4061"><tspan
     x="119.50055"
     y="1059.4061"
     class="st0 st5 st7"
     id="tspan803">  Патрульні катери </tspan><tspan
     x="146.90056"
     y="1071.4061"
     class="st0 st5 st7"
     id="tspan805">проєкту 03160</tspan></text><rect
   x="52"
   y="326.39999"
   class="st3"
   width="157.39999"
   height="10"
   id="rect809" /><text
   class="st0 st5 st7"
   id="text811"
   x="52.019798"
   y="334.0387">Командні пункти APE-5</text><rect
   x="169.7"
   y="142.5"
   class="st3"
   width="197"
   height="9.8000002"
   id="rect813" /><g
   id="g6126"><circle
     class="st0"
     cx="153.89999"
     cy="151.89999"
     r="11.4"
     id="circle23" /><text
     class="st0 st5 st7"
     id="text815"
     x="169.6842"
     y="150.10091">Радар Р-330Ж «Житель»</text></g><rect
   x="408.60001"
   y="145.3"
   class="st3"
   width="138.8"
   height="9.5"
   id="rect817" /><g
   id="g6753"><g
     id="g39">
		<circle
   class="st0"
   cx="481.20001"
   cy="171.60001"
   r="11.4"
   id="circle37" />
	</g><text
     class="st0 st5 st7"
     id="text819"
     x="419.8949"
     y="152.97231">Радари «Ртуть БМ»</text></g><rect
   x="790.90002"
   y="122.4"
   class="st3"
   width="138.8"
   height="27.9"
   id="rect821" /><g
   id="g6768"><g
     id="g99">
		<circle
   class="st0"
   cx="772.09998"
   cy="136.3"
   r="11.4"
   id="circle97" />
	</g><text
     id="text827"
     x="790.8974"
     y="130.0163"><tspan
       x="790.8974"
       y="130.0163"
       class="st0 st5 st7"
       id="tspan823">Інженерні машини </tspan><tspan
       x="790.8974"
       y="141.0163"
       class="st0 st5 st7"
       id="tspan825">РХМ-6Повозка</tspan></text></g><rect
   x="1622"
   y="137.10001"
   class="st3"
   width="178.2"
   height="12.1"
   id="rect829" /><text
   class="st0 st5 st7"
   id="text831"
   x="1622.0134"
   y="144.7603">MRAP КамАЗ-63968 «Тайфун»</text><rect
   x="1637.9"
   y="171.7"
   class="st3"
   width="193.7"
   height="10"
   id="rect833" /><text
   class="st0 st5 st7"
   id="text835"
   x="1637.9056"
   y="179.36211">MRAP K-53949 «Тайфун-К»</text><rect
   x="1627.2"
   y="207.2"
   class="st3"
   width="138.8"
   height="19"
   id="rect837" /><text
   class="st0 st5 st7"
   id="text839"
   x="1627.1747"
   y="214.8094">MRAP K-53949 «Лінза»</text><rect
   x="1160.6"
   y="157.8"
   class="st3"
   width="138.8"
   height="19"
   id="rect841" /><g
   id="g6778"><g
     id="g109">
		<circle
   class="st0"
   cx="1144.9"
   cy="155.8"
   r="11.4"
   id="circle107" />
	</g><text
     class="st0 st5 st7"
     id="text843"
     x="1160.6482"
     y="165.45979">БПЛА «Елерон»</text></g><rect
   x="1733.1"
   y="818.29999"
   class="st3"
   width="99.199997"
   height="19"
   id="rect845" /><text
   class="st0 st5 st7"
   id="text847"
   x="1733.097"
   y="825.97791">БПЛА «Тахіон»</text><rect
   x="1760.9"
   y="991.09998"
   class="st3"
   width="138.8"
   height="52.5"
   id="rect849" /><text
   id="text855"
   x="1760.9318"
   y="998.72528"><tspan
     x="1760.9318"
     y="998.72528"
     class="st0 st5 st7"
     id="tspan851">Десантні катери </tspan><tspan
     x="1760.9318"
     y="1010.7253"
     class="st0 st5 st7"
     id="tspan853">проєкту11770</tspan></text><rect
   x="1670.5"
   y="491.70001"
   class="st3"
   width="138.8"
   height="33.900002"
   id="rect857" /><text
   id="text863"
   x="1688.6378"
   y="499.30731"><tspan
     x="1688.6378"
     y="499.30731"
     class="st0 st5 st7"
     id="tspan859">Десантні катери </tspan><tspan
     x="1698.9377"
     y="511.30731"
     class="st0 st5 st7"
     id="tspan861">проєкту11770</tspan></text><rect
   x="1285.2"
   y="1059"
   class="st3"
   width="131.2"
   height="12.5"
   id="rect865" /><text
   class="st0 st5 st7"
   id="text867"
   x="1285.1929"
   y="1066.6859">Вантажівки та джипи</text><rect
   x="1515.5"
   y="1093.4"
   class="st3"
   width="138.8"
   height="19"
   id="rect869" /><text
   class="st0 st5 st7"
   id="text871"
   x="1515.4899"
   y="1101.0883">ГАЗ-3344-20 «Алеут»</text><g
   id="g881">
		<rect
   x="1168.7"
   y="831"
   class="st3"
   width="149"
   height="22.5"
   id="rect873" />
		<text
   transform="translate(1168.6726,838.597)"
   id="text879"><tspan
     x="0"
     y="0"
     class="st0 st5 st7"
     id="tspan875">Комплекс </tspan><tspan
     x="0"
     y="11"
     class="st0 st5 st7"
     id="tspan877">РЕБ«Борисоглебск-2В»</tspan></text>
	</g><g
   id="g891">
		<rect
   x="1320.5"
   y="777.29999"
   class="st3"
   width="81.5"
   height="22.5"
   id="rect883" />
		<text
   transform="translate(1320.4918,784.9486)"
   id="text889"><tspan
     x="0"
     y="0"
     class="st0 st5 st7"
     id="tspan885">Літаки </tspan><tspan
     x="0"
     y="11"
     class="st0 st5 st7"
     id="tspan887">Су-34</tspan></text>
	</g><g
   id="g901">
		<rect
   x="1448.8"
   y="681.20001"
   class="st3"
   width="81.5"
   height="22.5"
   id="rect893" />
		<text
   transform="translate(1448.8314,688.8561)"
   id="text899"><tspan
     x="0"
     y="0"
     class="st0 st5 st7"
     id="tspan895">Літаки </tspan><tspan
     x="0"
     y="11"
     class="st0 st5 st7"
     id="tspan897">Су-30</tspan></text>
	</g><g
   id="g911">
		<rect
   x="1187.7"
   y="786.5"
   class="st3"
   width="138.8"
   height="36"
   id="rect903" />
		<text
   transform="translate(1216.1316,794.1189)"
   id="text909"><tspan
     x="0"
     y="0"
     class="st0 st5 st7"
     id="tspan905">Радар 1РЛ257 </tspan><tspan
     x="3.4000001"
     y="11"
     class="st0 st5 st7"
     id="tspan907">«Красуха-4»</tspan></text>
	</g><g
   id="g917">
		<rect
   x="1235.8"
   y="352.79999"
   class="st3"
   width="51.099998"
   height="14"
   id="rect913" />
		<text
   transform="translate(1235.7821,360.4239)"
   class="st0 st5 st7"
   id="text915">БМД-4М</text>
	</g><rect
   x="1412"
   y="534.29999"
   class="st3"
   width="138.8"
   height="19"
   id="rect919" /><text
   class="st0 st5 st7"
   id="text921"
   x="1412.0049"
   y="541.96997">ЗРК «Стрела-10»</text><rect
   x="1457.8"
   y="510.70001"
   class="st3"
   width="43.200001"
   height="12.8"
   id="rect923" /><text
   class="st0 st5 st7"
   id="text925"
   x="1457.802"
   y="518.32037">БМП-3</text><rect
   x="1466"
   y="447.20001"
   class="st3"
   width="138.8"
   height="14.8"
   id="rect927" /><text
   class="st0 st5 st7"
   id="text929"
   x="1466.0371"
   y="454.82281">БТР-МДМ «Ракушка»</text><rect
   x="1420.2"
   y="412.29999"
   class="st3"
   width="138.8"
   height="19"
   id="rect931" /><text
   class="st0 st5 st7"
   id="text933"
   x="1420.168"
   y="419.97119">ЗРК «Панцир-С1»</text><rect
   x="1388.7"
   y="357.60001"
   class="st3"
   width="138.8"
   height="11.3"
   id="rect935" /><text
   class="st0 st5 st7"
   id="text937"
   x="1388.6779"
   y="365.22491">ПТРК «Корнет»</text><rect
   x="1342.6"
   y="327.70001"
   class="st3"
   width="138.8"
   height="14.5"
   id="rect939" /><text
   class="st0 st5 st7"
   id="text941"
   x="1342.6"
   y="335.30261">Ракети «Іскандер»</text><rect
   x="918"
   y="361.89999"
   class="st3"
   width="138.8"
   height="19"
   id="rect943" /><text
   class="st0 st5 st7"
   id="text945"
   x="954.36981"
   y="369.552">Вертольоти Мі-8</text><rect
   x="921.90002"
   y="299.29999"
   class="st3"
   width="138.8"
   height="19"
   id="rect947" /><text
   class="st0 st5 st7"
   id="text949"
   x="958.23053"
   y="306.9852">Вертольоти Мі-8</text><rect
   x="1009.6"
   y="266.89999"
   class="st3"
   width="138.8"
   height="19"
   id="rect951" /><text
   class="st0 st5 st7"
   id="text953"
   x="1009.6351"
   y="274.56659">Вертольоти Мі-28</text><rect
   x="1233.9"
   y="298.89999"
   class="st3"
   width="138.8"
   height="19"
   id="rect955" /><text
   class="st0 st5 st7"
   id="text957"
   x="1233.9364"
   y="306.5849">Вертольоти Мі-35</text><rect
   x="1134.3"
   y="264.39999"
   class="st3"
   width="138.8"
   height="19"
   id="rect959" /><text
   class="st0 st5 st7"
   id="text961"
   x="1134.3452"
   y="272.08081">Вертольоти Ка-52</text><rect
   x="967.59998"
   y="773.79999"
   class="st3"
   width="72.599998"
   height="24.4"
   id="rect963" /><text
   id="text969"
   x="990.33917"
   y="781.46973"><tspan
     x="990.33917"
     y="781.46973"
     class="st0 st5 st7"
     id="tspan965">БПЛА </tspan><tspan
     x="983.43921"
     y="792.46973"
     class="st0 st5 st7"
     id="tspan967">«Zala»</tspan></text><rect
   x="1555.6"
   y="582.70001"
   class="st3"
   width="78.800003"
   height="27.6"
   id="rect971" /><text
   id="text977"
   x="1555.6049"
   y="590.3382"><tspan
     x="1555.6049"
     y="590.3382"
     class="st0 st5 st7"
     id="tspan973">ТОС-1А </tspan><tspan
     x="1555.6049"
     y="601.3382"
     class="st0 st5 st7"
     id="tspan975">(Сонцепьок)</tspan></text><rect
   x="537.40002"
   y="666.79999"
   class="st3"
   width="129.39999"
   height="13.4"
   id="rect979" /><text
   class="st0 st5 st7"
   id="text981"
   x="537.39941"
   y="674.48163">ЗРПК «Тунгуска-М1»</text><rect
   x="267.89999"
   y="735.29999"
   class="st3"
   width="109.8"
   height="12"
   id="rect983" /><text
   class="st0 st5 st7"
   id="text985"
   x="267.91339"
   y="742.90637">Ракети «Калібр»</text><path
   class="st1"
   d="m 663.5,886.5 c -22.2,-11.6 -40.2,-21 -40.2,-21 0,0 18,9.4 40.2,21 22.2,11.6 40.2,21 40.2,21 0,0 -18,-9.4 -40.2,-21 z"
   id="path987" /><path
   class="st1"
   d="m 628.4,1053.6 c -12.5,7 -22.6,12.7 -22.6,12.7 0,0 10.1,-5.7 22.6,-12.7 12.5,-7 22.6,-12.7 22.6,-12.7 0,0 -10.1,5.7 -22.6,12.7 z"
   id="path989" /><polyline
   class="st1"
   points="602,1036 651.1,1040.9 631.8,1089.2  "
   id="polyline991" /><g
   id="g995">
		<circle
   class="st0"
   cx="602"
   cy="1036"
   r="11.4"
   id="circle993" />
	</g><g
   id="g999">
		<circle
   class="st0"
   cx="605.59998"
   cy="1066.4"
   r="11.4"
   id="circle997" />
	</g><g
   id="g1003">
		<circle
   class="st0"
   cx="631.79999"
   cy="1089.2"
   r="11.4"
   id="circle1001" />
	</g><line
   class="st1"
   x1="623.29999"
   y1="865.5"
   x2="578"
   y2="861.79999"
   id="line1005" /><line
   class="st1"
   x1="560.79999"
   y1="871.40002"
   x2="530.59998"
   y2="905.29999"
   id="line1007" /><line
   class="st1"
   x1="685.90002"
   y1="1023.9"
   x2="651.20001"
   y2="1043.3"
   id="line1009" /><line
   class="st1"
   x1="728.79999"
   y1="937.20001"
   x2="711.79999"
   y2="1005.7"
   id="line1011" /><g
   id="g1015">
		<circle
   class="st2"
   cx="638.29999"
   cy="874.40002"
   r="22.9"
   id="circle1013" />
	</g><g
   id="g1019">
		<circle
   class="st2"
   cx="705.90002"
   cy="1012.7"
   r="22.9"
   id="circle1017" />
	</g><g
   id="g1023">
		<circle
   class="st2"
   cx="571.90002"
   cy="861.29999"
   r="16.200001"
   id="circle1021" />
	</g><g
   id="g1027">
		<circle
   class="st2"
   cx="651.20001"
   cy="1043.3"
   r="16.200001"
   id="circle1025" />
	</g><path
   class="st1"
   d="m 504.7,920.6 c -12.5,7 -22.6,12.7 -22.6,12.7 0,0 10.1,-5.7 22.6,-12.7 12.5,-7 22.6,-12.7 22.6,-12.7 0,0 -10.1,5.7 -22.6,12.7 z"
   id="path1029" /><polyline
   class="st1"
   points="478.2,903 527.3,907.9 508,956.2  "
   id="polyline1031" /><g
   id="g1035">
		<circle
   class="st0"
   cx="478.20001"
   cy="903"
   r="11.4"
   id="circle1033" />
	</g><g
   id="g1039">
		<circle
   class="st0"
   cx="481.89999"
   cy="933.40002"
   r="11.4"
   id="circle1037" />
	</g><path
   class="st1"
   d="m 538.6,938.8 c 4.3,13.7 7.8,24.8 7.8,24.8 0,0 -3.5,-11.1 -7.8,-24.8 -4.3,-13.7 -7.8,-24.8 -7.8,-24.8 0,0 3.5,11.1 7.8,24.8 z"
   id="path1041" /><g
   id="g1045">
		<circle
   class="st0"
   cx="546.40002"
   cy="963.79999"
   r="11.4"
   id="circle1043" />
	</g><g
   id="g1049">
		<circle
   class="st0"
   cx="508"
   cy="956.20001"
   r="11.4"
   id="circle1047" />
	</g><g
   id="g1053">
		<circle
   class="st2"
   cx="527.5"
   cy="910.29999"
   r="18.9"
   id="circle1051" />
	</g><rect
   x="724.59998"
   y="911"
   class="st3"
   width="182.39999"
   height="56.299999"
   id="rect1059" /><g
   id="g29231"><g
     id="g1057">
		<circle
   class="st2"
   cx="732.29999"
   cy="923.70001"
   r="34.900002"
   id="circle1055" />
	</g><text
     id="text1065"
     x="724.6062"
     y="920.56671"><tspan
       x="724.6062"
       y="920.56671"
       class="st4 st5 st6"
       id="tspan1061">Дерипаска</tspan><tspan
       x="724.6062"
       y="938.56671"
       class="st4 st5 st6"
       id="tspan1063">Олег Володимирович</tspan></text></g><rect
   x="1254.9"
   y="362.29999"
   class="st3"
   width="3.5"
   height="0.69999999"
   id="rect1067" />
</svg>
